<svg xmlns="http://www.w3.org/2000/svg" viewBox="0 0 150 240"><defs><style>.cls-1{fill:#fff;}.cls-2,.cls-4{fill:#07a3e9;}.cls-2,.cls-3{fill-rule:evenodd;}.cls-3,.cls-5{fill:#1e5a64;}</style></defs><g id="Layer_2" data-name="Layer 2"><g id="Layer_1-2" data-name="Layer 1"><path class="cls-1" d="M0,75A75,75,0,0,1,75,0h0a75,75,0,0,1,75,75h0a75,75,0,0,1-75,75h0A75,75,0,0,1,0,75Z"/><path class="cls-1" d="M0,165A75,75,0,0,1,75,90h0a75,75,0,0,1,75,75h0a75,75,0,0,1-75,75h0A75,75,0,0,1,0,165Z"/><path class="cls-2" d="M29.08,29.82a64.8,64.8,0,0,0,0,91.65L67.63,160c.75.75,1.52,1.48,2.3,2.19l15.34-15.33c-.88-.75-1.73-1.54-2.56-2.37L44.58,106.39A43.19,43.19,0,0,1,97.23,38.76l15.65-15.64A64.83,64.83,0,0,0,29.08,29.82Z"/><path class="cls-2" d="M29.08,121.47a64.81,64.81,0,1,1,97.39-6.56l-15.3-15.3A43.41,43.41,0,1,0,37.66,53.45,26,26,0,0,0,32.39,94.2l8.42,8.42A44.62,44.62,0,0,0,48,109.84l30.51,30.51A64.63,64.63,0,0,1,29.08,121.47Z"/><path class="cls-3" d="M120.06,212.64a64.8,64.8,0,0,0,0-91.65L81.52,82.45c-.76-.76-1.53-1.49-2.31-2.2L63.88,95.59c.87.74,1.73,1.53,2.55,2.36l38.13,38.13A43.18,43.18,0,0,1,51.91,203.7L36.27,219.35A64.82,64.82,0,0,0,120.06,212.64Z"/><path class="cls-3" d="M120.06,121a64.81,64.81,0,1,1-97.39,6.56L38,142.85A43.41,43.41,0,1,0,111.48,189a26,26,0,0,0,5.27-40.75l-8.42-8.42a45.21,45.21,0,0,0-3.4-3.83,43.72,43.72,0,0,0-3.83-3.4L70.6,102.11A64.66,64.66,0,0,1,120.06,121Z"/><rect class="cls-4" x="71" y="74.13" width="0.94" height="10.9" transform="translate(-35.34 73.84) rotate(-45)"/><circle class="cls-5" cx="75.91" cy="83.87" r="1.67"/><circle class="cls-4" cx="68.46" cy="76.42" r="1.67"/><circle class="cls-4" cx="72.03" cy="80" r="1.06"/><path class="cls-4" d="M61,79.44l10,.29a.43.43,0,0,1,.42.44h0a.44.44,0,0,1-.44.43l-10-.29a.44.44,0,0,1-.42-.45h0A.45.45,0,0,1,61,79.44Z"/><circle class="cls-5" cx="86.15" cy="164.18" r="1.67"/><circle class="cls-4" cx="66.59" cy="80.12" r="1.06"/><rect class="cls-4" x="64.01" y="82.18" width="0.96" height="10.9" transform="translate(-42.33 108.34) rotate(-64.62)"/><circle class="cls-4" cx="59.59" cy="85.62" r="1.34"/><circle class="cls-4" cx="65.04" cy="87.93" r="1.06"/><circle class="cls-5" cx="69.5" cy="90.2" r="1.67"/><path class="cls-4" d="M59.64,85.62,66.2,93a.5.5,0,0,1,0,.7h0a.5.5,0,0,1-.7,0l-6.57-7.42a.49.49,0,0,1,0-.7h0A.5.5,0,0,1,59.64,85.62Z"/><circle class="cls-4" cx="62.94" cy="90.15" r="1.06"/><circle class="cls-5" cx="66.14" cy="93.99" r="1.67"/><path class="cls-5" d="M90.38,156.6l-7-7a.49.49,0,0,0-.69,0h0a.48.48,0,0,0,0,.7l7,7a.47.47,0,0,0,.69,0h0A.49.49,0,0,0,90.38,156.6Z"/><circle class="cls-4" cx="82.19" cy="149.15" r="1.67"/><circle class="cls-5" cx="86.06" cy="153.02" r="1.06"/><rect class="cls-5" x="85.62" y="153.64" width="0.85" height="10.9" rx="0.43" transform="translate(-6.8 3.87) rotate(-2.48)"/><circle class="cls-5" cx="85.92" cy="158.47" r="1.06"/><path class="cls-5" d="M81.66,166.51l-5-10.64a.43.43,0,0,0-.57-.2h0a.43.43,0,0,0-.21.57l5,10.64a.43.43,0,0,0,.57.2h0A.42.42,0,0,0,81.66,166.51Z"/><circle class="cls-5" cx="78.13" cy="160.02" r="1.06"/><circle class="cls-4" cx="75.86" cy="155.57" r="1.67"/><path class="cls-5" d="M81.49,166.55l-8.68-7.68a.36.36,0,0,0-.49,0h0a.35.35,0,0,0,0,.49L81,167.07a.36.36,0,0,0,.49,0h0A.36.36,0,0,0,81.49,166.55Z"/><circle class="cls-5" cx="75.91" cy="162.12" r="1.06"/><circle class="cls-4" cx="72.08" cy="158.92" r="1.67"/></g></g></svg>